<svg xmlns="http://www.w3.org/2000/svg" width="44" height="44" viewBox="0 0 44 44" fill="none">
  <!-- calligraphic brush asterisk; fill colour matches the accent variable in main.css -->
  <path d="M17.54 5.84 L17.59 6.43 L17.65 7.03 L17.71 7.63 L17.79 8.24 L17.87 8.85 L17.97 9.47 L18.07 10.09 L18.18 10.72 L18.29 11.35 L18.42 11.98 L18.55 12.62 L18.69 13.27 L18.83 13.91 L18.98 14.56 L19.14 15.22 L19.30 15.88 L19.46 16.54 L19.63 17.21 L19.80 17.88 L19.97 18.55 L20.14 19.22 L20.32 19.91 L20.49 20.59 L20.67 21.28 L20.84 21.97 L21.01 22.66 L21.18 23.36 L21.35 24.06 L21.51 24.76 L21.67 25.47 L21.82 26.18 L21.96 26.89 L22.09 27.61 L22.20 28.33 L22.32 29.05 L22.42 29.77 L22.52 30.49 L22.62 31.22 L22.71 31.95 L22.79 32.68 L22.86 33.41 L22.92 34.14 L22.98 34.87 L23.02 35.60 L23.06 36.33 L23.09 37.06 L23.10 37.79 L23.10 38.52 L24.50 38.55 L24.52 37.81 L24.54 37.06 L24.55 36.31 L24.56 35.56 L24.56 34.81 L24.55 34.06 L24.54 33.31 L24.52 32.56 L24.50 31.82 L24.47 31.07 L24.44 30.32 L24.40 29.58 L24.36 28.83 L24.31 28.09 L24.26 27.35 L24.21 26.61 L24.17 25.87 L24.13 25.14 L24.09 24.40 L24.05 23.67 L24.01 22.94 L23.97 22.22 L23.92 21.49 L23.88 20.77 L23.83 20.06 L23.79 19.35 L23.74 18.65 L23.69 17.95 L23.64 17.25 L23.59 16.56 L23.54 15.88 L23.49 15.20 L23.44 14.54 L23.38 13.87 L23.33 13.22 L23.28 12.57 L23.22 11.93 L23.17 11.30 L23.12 10.68 L23.06 10.07 L23.01 9.46 L22.97 8.87 L22.92 8.28 L22.87 7.71 L22.83 7.14 L22.79 6.59 L22.76 6.05 L22.73 5.51 L22.55 4.72 L22.14 4.02 L21.53 3.48 L20.78 3.16 L19.97 3.08 L19.18 3.26 L18.48 3.67 L17.94 4.28 L17.62 5.03 Z" fill="#007d79"/>
  <path d="M8.67 40.23 L9.32 39.74 L9.95 39.23 L10.59 38.70 L11.22 38.15 L11.85 37.59 L12.47 37.01 L13.09 36.41 L13.71 35.80 L14.32 35.17 L14.93 34.53 L15.53 33.87 L16.13 33.20 L16.73 32.51 L17.33 31.81 L17.92 31.10 L18.51 30.37 L19.10 29.63 L19.69 28.88 L20.27 28.12 L20.86 27.35 L21.44 26.57 L22.03 25.78 L22.61 24.98 L23.20 24.18 L23.79 23.36 L24.38 22.54 L24.97 21.71 L25.56 20.87 L26.16 20.03 L26.76 19.18 L27.37 18.33 L27.98 17.48 L28.60 16.63 L29.23 15.77 L29.86 14.91 L30.49 14.05 L31.13 13.18 L31.77 12.31 L32.42 11.44 L33.07 10.56 L33.72 9.68 L34.38 8.80 L35.04 7.92 L35.71 7.04 L36.38 6.16 L37.06 5.28 L37.74 4.39 L38.44 3.52 L37.50 2.76 L36.79 3.63 L36.08 4.50 L35.37 5.36 L34.66 6.21 L33.96 7.07 L33.26 7.92 L32.56 8.77 L31.86 9.61 L31.16 10.45 L30.47 11.29 L29.78 12.12 L29.09 12.95 L28.40 13.77 L27.72 14.59 L27.04 15.40 L26.36 16.20 L25.67 16.99 L24.98 17.77 L24.29 18.54 L23.60 19.30 L22.92 20.05 L22.23 20.79 L21.55 21.52 L20.87 22.25 L20.19 22.96 L19.52 23.67 L18.85 24.36 L18.18 25.05 L17.51 25.72 L16.85 26.38 L16.19 27.03 L15.54 27.67 L14.89 28.30 L14.25 28.92 L13.61 29.53 L12.97 30.12 L12.34 30.70 L11.71 31.27 L11.09 31.83 L10.48 32.37 L9.87 32.90 L9.26 33.42 L8.66 33.92 L8.06 34.41 L7.47 34.88 L6.88 35.34 L6.29 35.78 L5.71 36.20 L5.16 36.76 L4.81 37.46 L4.69 38.23 L4.82 39.01 L5.18 39.70 L5.73 40.25 L6.43 40.60 L7.21 40.72 L7.98 40.59 Z" fill="#007d79"/>
  <path d="M39.40 27.26 L38.77 26.97 L38.13 26.68 L37.49 26.38 L36.84 26.08 L36.17 25.78 L35.50 25.48 L34.83 25.17 L34.14 24.87 L33.45 24.56 L32.75 24.26 L32.04 23.95 L31.33 23.65 L30.61 23.34 L29.89 23.04 L29.16 22.74 L28.43 22.43 L27.70 22.13 L26.96 21.83 L26.22 21.53 L25.47 21.23 L24.73 20.94 L23.98 20.64 L23.24 20.35 L22.49 20.05 L21.74 19.76 L21.00 19.46 L20.25 19.17 L19.51 18.88 L18.77 18.59 L18.03 18.30 L17.30 18.02 L16.57 17.73 L15.85 17.42 L15.14 17.13 L14.43 16.83 L13.73 16.54 L13.03 16.25 L12.33 15.96 L11.65 15.68 L10.97 15.40 L10.29 15.13 L9.62 14.86 L8.96 14.59 L8.31 14.33 L7.67 14.08 L7.04 13.83 L6.41 13.58 L5.80 13.33 L5.30 14.53 L5.90 14.80 L6.51 15.07 L7.12 15.35 L7.75 15.64 L8.37 15.94 L9.01 16.25 L9.65 16.56 L10.30 16.88 L10.95 17.21 L11.61 17.54 L12.28 17.88 L12.95 18.22 L13.62 18.57 L14.30 18.92 L14.98 19.28 L15.67 19.64 L16.35 20.02 L17.03 20.40 L17.72 20.79 L18.40 21.19 L19.09 21.59 L19.78 21.99 L20.47 22.39 L21.16 22.79 L21.85 23.20 L22.54 23.60 L23.23 24.01 L23.92 24.41 L24.61 24.82 L25.30 25.22 L25.99 25.62 L26.67 26.02 L27.36 26.41 L28.04 26.80 L28.73 27.19 L29.41 27.57 L30.09 27.94 L30.76 28.32 L31.44 28.68 L32.11 29.04 L32.77 29.39 L33.43 29.74 L34.09 30.08 L34.74 30.42 L35.39 30.74 L36.03 31.07 L36.67 31.38 L37.29 31.69 L38.03 31.90 L38.80 31.88 L39.52 31.63 L40.13 31.16 L40.56 30.53 L40.78 29.79 L40.75 29.03 L40.50 28.30 L40.03 27.70 Z" fill="#007d79"/>
</svg>
